HIERARCHY
ROOT hip
{
	OFFSET 0.000000 0.000000 0.000000 
	CHANNELS 6 Xposition Yposition Zposition Xrotation Zrotation Yrotation
	JOINT abdomen
	{
		OFFSET 0.000000 3.402643 0.000000 
		CHANNELS 3 Xrotation Zrotation Yrotation
		JOINT chest
		{
			OFFSET 0.000000 8.438565 -0.680529 
			CHANNELS 3 Xrotation Zrotation Yrotation
			JOINT neck
			{
				OFFSET 0.000000 10.207942 -0.272212 
				CHANNELS 3 Xrotation Zrotation Yrotation
				JOINT head
				{
					OFFSET 0.000000 3.130431 0.000000 
					CHANNELS 3 Xrotation Zrotation Yrotation
					End Site
					{
						OFFSET 0.000000 3.130435 0.000000 
					}
				}
			}
			JOINT lCollar
			{
				OFFSET 3.470700 6.669187 -0.816635 
				CHANNELS 3 Yrotation Zrotation Xrotation
				JOINT lShldr
				{
					OFFSET 3.198488 0.000000 0.000000 
					CHANNELS 3 Zrotation Yrotation Xrotation
					JOINT lForeArm
					{
						OFFSET 10.139888 0.000000 0.000000 
						CHANNELS 3 Yrotation Zrotation Xrotation
						JOINT lHand
						{
							OFFSET 8.370511 0.000000 0.000000 
							CHANNELS 3 Zrotation Yrotation Xrotation
							End Site
							{
								OFFSET 4.083176 0.000000 0.000000 
							}
						}
					}
				}
			}
			JOINT rCollar
			{
				OFFSET -3.470700 6.669187 -0.816635 
				CHANNELS 3 Yrotation Zrotation Xrotation
				JOINT rShldr
				{
					OFFSET -3.198488 0.000000 0.000000 
					CHANNELS 3 Zrotation Yrotation Xrotation
					JOINT rForeArm
					{
						OFFSET -10.139888 0.000000 0.000000 
						CHANNELS 3 Yrotation Zrotation Xrotation
						JOINT rHand
						{
							OFFSET -8.370511 0.000000 0.000000 
							CHANNELS 3 Zrotation Yrotation Xrotation
							End Site
							{
								OFFSET -4.083176 0.000000 0.000000 
							}
						}
					}
				}
			}
		}
	}
	JOINT lThigh
	{
		OFFSET 5.308129 -1.633274 1.361059 
		CHANNELS 3 Xrotation Zrotation Yrotation
		JOINT lShin
		{
			OFFSET -2.041588 -20.007561 0.000000 
			CHANNELS 3 Xrotation Zrotation Yrotation
			JOINT lFoot
			{
				OFFSET 0.000000 -19.190928 -1.224953 
				CHANNELS 3 Xrotation Yrotation Zrotation
				End Site
				{
					OFFSET 0.000000 -2.449906 4.627600 
				}
			}
		}
	}
	JOINT rThigh
	{
		OFFSET -5.308129 -1.633274 1.361059 
		CHANNELS 3 Xrotation Zrotation Yrotation
		JOINT rShin
		{
			OFFSET 2.041588 -20.007561 0.000000 
			CHANNELS 3 Xrotation Zrotation Yrotation
			JOINT rFoot
			{
				OFFSET 0.000000 -19.190928 -1.224953 
				CHANNELS 3 Xrotation Yrotation Zrotation
				End Site
				{
					OFFSET 0.000000 -2.449906 4.627600 
				}
			}
		}
	}
}
MOTION
Frames: 19
Frame Time: 0.016667
0.000000 49.583961 -0.456700 -2.285156 0.000000 0.000000 8.606224 5.095821 3.873379 2.460938 0.000000 0.000000 -5.619390 -2.040968 0.390725 5.588009 2.050767 -0.214706 0.000000 0.000000 0.000000 -77.512939 1.860148 0.181923 -0.687263 -5.954307 6.037358 3.391611 -0.853931 -6.153819 0.000000 0.000000 0.000000 78.725624 -1.668390 0.372241 -0.042892 3.133475 5.075717 -2.056873 1.521897 -5.436424 0.487355 3.771504 0.039925 3.607841 -3.773872 -0.568529 -1.570129 0.083549 0.011998 0.322238 -5.428759 -0.361678 3.599840 4.944019 0.202927 -1.883246 0.303810 0.310123 
0.000000 49.301731 -1.370100 -4.755859 0.000000 0.000000 8.606224 5.095821 3.873379 5.087891 0.000000 0.000000 -5.619390 -2.040968 0.390725 5.588009 2.050767 -0.214706 0.000000 0.000000 0.000000 -75.050735 1.861332 0.183611 -0.687263 -5.954307 6.037358 3.391611 -0.853931 -6.153819 0.000000 0.000000 0.000000 76.615326 -1.667111 0.376385 -0.042892 3.133475 5.075717 -2.056873 1.521897 -5.436424 -1.899759 3.721894 0.140720 10.133071 -3.826762 -1.025725 -3.144143 0.046146 0.018960 -1.746383 -5.346135 -0.408751 9.708593 4.829602 0.808993 -4.373405 0.229348 0.287889 
0.000000 48.918205 -1.826799 -7.207031 0.000000 0.000000 8.606224 5.095821 3.873379 7.714844 0.000000 0.000000 -5.619390 -2.040968 0.390725 5.588009 2.050767 -0.214706 0.000000 0.000000 0.000000 -71.357574 1.855334 0.182641 -0.687263 -5.954307 6.037358 3.391611 -0.853931 -6.153819 0.000000 0.000000 0.000000 74.153267 -1.670728 0.372451 -0.042892 3.133475 5.075717 -2.056873 1.521897 -5.436424 -4.373798 3.768494 0.239312 17.133255 -3.671285 -1.704604 -5.261375 0.148803 0.053753 -4.203999 -5.403502 -0.471318 16.528103 4.676180 1.545163 -7.002652 0.265904 0.312376 
0.000000 48.368267 -2.740127 -9.677734 0.000000 0.000000 8.606224 5.095821 3.873379 10.185547 0.000000 0.000000 -5.619390 -2.040968 0.390725 5.588009 2.050767 -0.214706 0.000000 0.000000 0.000000 -69.432770 1.863016 0.177694 -0.687263 -5.954307 6.037358 3.391611 -0.853931 -6.153819 0.000000 0.000000 0.000000 72.570610 -1.662181 0.378235 -0.042892 3.133475 5.075717 -2.056873 1.521897 -5.436424 -6.764199 3.757703 0.145868 23.930859 -3.691540 -1.827028 -7.351952 0.072036 0.225436 -6.278164 -5.399414 -0.385022 23.076170 4.497761 1.884351 -9.287824 0.322501 0.325666 
0.000000 47.666344 -3.196854 -12.138672 0.000000 0.000000 8.606224 5.095821 3.873379 12.822266 0.000000 0.000000 -5.619390 -2.040968 0.390725 5.588009 2.050767 -0.214706 0.000000 0.000000 0.000000 -67.322449 1.863545 0.175528 -0.687263 -5.954307 6.037358 3.391611 -0.853931 -6.153819 0.000000 0.000000 0.000000 70.284386 -1.668819 0.379845 -0.042892 3.133475 5.075717 -2.056873 1.521897 -5.436424 -9.259523 3.795290 0.242302 30.707121 -3.184427 -2.362638 -9.140363 0.061018 0.039659 -8.611057 -5.447942 -0.559144 29.356792 4.071177 2.619040 -11.744242 0.204169 0.308918 
0.000000 46.790775 -4.110191 -14.599609 0.000000 0.000000 8.606224 5.095821 3.873379 15.449219 0.000000 0.000000 -5.619390 -2.040968 0.390725 5.588009 2.050767 -0.214706 0.000000 0.000000 0.000000 -67.498337 1.860338 0.178834 -0.687263 -5.954307 6.037358 3.391611 -0.853931 -6.153819 0.000000 0.000000 0.000000 69.756889 -1.662843 0.373483 -0.042892 3.133475 5.075717 -2.056873 1.521897 -5.436424 -11.707399 3.778573 0.162368 37.607124 -3.195238 -2.662855 -11.059402 0.316193 0.145417 -10.824711 -5.427051 -0.632367 36.116501 3.720005 3.190934 -14.202589 0.394979 0.219837 
0.000000 45.792168 -4.566936 -17.050779 0.000000 0.000000 8.606224 5.095821 3.873379 18.095701 0.000000 0.000000 -5.619390 -2.040968 0.390725 5.588009 2.050767 -0.214706 0.000000 0.000000 0.000000 -67.498337 1.860338 0.178834 -0.687263 -5.954307 6.037358 3.391611 -0.853931 -6.153819 0.000000 0.000000 0.000000 69.756889 -1.662843 0.373483 -0.042892 3.133475 5.075717 -2.056873 1.521897 -5.436424 -14.105055 3.767360 0.275903 44.488518 -2.730095 -3.206244 -13.001781 0.370453 0.190961 -13.151465 -5.448235 -0.687980 42.868019 3.359099 3.615441 -16.842598 0.299148 0.178175 
0.000000 44.677792 -5.480255 -19.521482 0.000000 0.000000 8.606224 5.095821 3.873379 20.732422 0.000000 0.000000 -5.619390 -2.040968 0.390725 5.588009 2.050767 -0.214706 0.000000 0.000000 0.000000 -67.498337 1.860338 0.178834 -0.687263 -5.954307 6.037358 3.391611 -0.853931 -6.153819 0.000000 0.000000 0.000000 69.756889 -1.662843 0.373483 -0.042892 3.133475 5.075717 -2.056873 1.521897 -5.436424 -16.632872 3.796581 0.187446 51.370083 -2.203061 -3.466461 -14.928912 0.274948 0.125638 -15.415249 -5.437778 -0.587048 49.047874 2.795099 3.689378 -19.124901 0.452369 0.253524 
0.000000 43.433147 -5.937017 -21.806641 0.000000 0.000000 8.606224 5.095821 3.873379 23.359375 0.000000 0.000000 -5.619390 -2.040968 0.390725 5.588009 2.050767 -0.214706 0.000000 0.000000 0.000000 -67.498337 1.860338 0.178834 -0.687263 -5.954307 6.037358 3.391611 -0.853931 -6.153819 0.000000 0.000000 0.000000 69.756889 -1.662843 0.373483 -0.042892 3.133475 5.075717 -2.056873 1.521897 -5.436424 -18.993084 3.817926 0.122536 58.234310 -2.016365 -3.508214 -16.679686 -0.010740 0.005081 -17.641270 -5.418392 -0.623568 55.570889 2.275325 4.272061 -21.424311 0.223314 0.170486 
0.000000 42.051029 -6.850316 -24.267578 0.000000 0.000000 8.606224 5.095821 3.873379 26.005857 0.000000 0.000000 -5.619390 -2.040968 0.390725 5.588009 2.050767 -0.214706 0.000000 0.000000 0.000000 -67.498337 1.860338 0.178834 -0.687263 -5.954307 6.037358 3.391611 -0.853931 -6.153819 0.000000 0.000000 0.000000 69.756889 -1.662843 0.373483 -0.042892 3.133475 5.075717 -2.056873 1.521897 -5.436424 -21.132296 3.788745 0.190758 64.940475 -1.519273 -3.670993 -18.623030 0.019267 0.022295 -19.998554 -5.438840 -0.708949 62.094807 1.729689 4.454119 -23.874636 0.313607 0.201366 
0.000000 40.574821 -7.763699 -26.728516 0.000000 0.000000 8.606224 5.095821 3.873379 28.457031 0.000000 0.000000 -5.619390 -2.040968 0.390725 5.588009 2.050767 -0.214706 0.000000 0.000000 0.000000 -67.498337 1.860338 0.178834 -0.687263 -5.954307 6.037358 3.391611 -0.853931 -6.153819 0.000000 0.000000 0.000000 69.756889 -1.662843 0.373483 -0.042892 3.133475 5.075717 -2.056873 1.521897 -5.436424 -23.789293 3.796800 0.294656 71.940811 -0.993704 -3.836942 -20.390518 0.061887 0.037127 -21.996216 -5.418571 -0.556059 68.425423 1.201087 4.562194 -26.345718 0.288941 0.228837 
0.000000 42.889633 -8.220490 -27.597656 0.000000 0.000000 8.606224 5.095821 3.873379 22.841797 0.000000 0.000000 -5.619390 -2.040968 0.390725 5.588009 2.050767 -0.214706 0.000000 0.000000 0.000000 -67.088684 -29.739288 -1.483011 -0.687263 -5.954307 6.037358 3.391611 -0.853931 -6.153819 0.000000 0.000000 0.000000 69.577568 29.608553 -0.528061 -0.042892 3.133475 5.075717 -2.056873 1.521897 -5.436424 -16.083723 3.796100 0.156742 59.289616 -2.018546 -3.565772 -16.327585 0.128040 0.059721 -14.305657 -5.419407 -0.395519 55.237495 2.403955 3.983469 -20.014713 0.274503 0.510486 
0.000000 44.792892 -8.677183 -28.476561 0.000000 0.000000 8.606224 5.095821 3.873379 17.216797 0.000000 0.000000 -5.619390 -2.040968 0.390725 5.588009 2.050767 -0.214706 0.000000 0.000000 0.000000 -64.586403 -61.475502 -4.861567 -0.687263 -5.954307 6.037358 3.391611 -0.853931 -6.153819 0.000000 0.000000 0.000000 68.429398 61.050274 -1.997606 -0.042892 3.133475 5.075717 -2.056873 1.521897 -5.436424 -8.142432 3.748919 0.209624 46.279343 -2.561262 -2.898103 -12.088437 -0.176178 -0.078150 -6.653190 -5.433766 -0.521331 41.805920 3.476428 3.208343 -13.506762 0.450132 0.256445 
0.000000 46.240288 -9.133870 -29.365234 0.000000 0.000000 8.606224 5.095821 3.873379 11.250000 0.000000 0.000000 -5.619390 -2.040968 0.390725 5.588009 2.050767 -0.214706 0.000000 0.000000 0.000000 -107.579750 -94.306946 37.937401 -0.687263 -5.954307 6.037358 3.391611 -0.853931 -6.153819 0.000000 0.000000 0.000000 102.045898 92.534409 30.253033 -0.042892 3.133475 5.075717 -2.056873 1.521897 -5.436424 -0.370073 3.802790 0.085554 33.180916 -3.360663 -2.401030 -7.352438 0.063633 0.178796 0.995761 -5.360196 -0.330556 28.864550 4.159230 2.251627 -7.176940 0.304341 0.308939 
0.000000 47.137753 -9.590561 -30.244143 0.000000 0.000000 8.606224 5.095821 3.873379 5.625000 0.000000 0.000000 -5.619390 -2.040968 0.390725 5.588009 2.050767 -0.214706 0.000000 0.000000 0.000000 -78.418678 -125.309113 3.819768 -0.687263 -5.954307 6.037358 3.391611 -0.853931 -6.153819 0.000000 0.000000 0.000000 78.015976 123.495964 2.075445 -0.042892 3.133475 5.075717 -2.056873 1.521897 -5.436424 7.285303 3.768691 -0.058501 20.919716 -3.667687 -1.790033 -3.819253 0.359904 0.129256 8.426302 -5.390316 -0.346070 15.458668 4.696762 1.296256 0.287269 0.142817 0.241572 
0.000000 47.449097 -10.503809 -31.113281 0.000000 0.000000 8.606224 5.095821 3.873379 0.000000 0.000000 0.000000 -5.619390 -2.040968 0.390725 5.588009 2.050767 -0.214706 0.000000 0.000000 0.000000 -80.757072 -156.887650 1.191217 -0.687263 -5.954307 6.037358 3.391611 -0.853931 -6.153819 0.000000 0.000000 0.000000 80.653931 154.768692 0.765559 -0.042892 3.133475 5.075717 -2.056873 1.521897 -5.436424 14.931401 3.798455 -0.357420 8.386145 -4.042058 -0.551692 0.489728 0.179370 0.213122 16.158426 -5.419216 -0.326416 2.086461 4.982144 0.080150 5.627102 0.216641 0.254750 
0.000000 48.425747 -12.786826 -48.339840 0.000000 0.000000 8.606224 5.095821 3.873379 3.857422 0.000000 0.000000 -13.529545 -2.040968 0.390725 5.588009 2.050767 -0.214706 0.000000 0.000000 0.000000 -88.746346 -164.850220 1.839172 -6.865518 -5.920981 5.734324 1.290890 -1.083170 -5.952471 0.000000 0.000000 0.000000 88.854668 162.693665 0.939594 8.049205 3.065528 4.896382 4.942935 -1.697453 9.536667 21.007820 3.808096 -0.480727 16.783360 -3.970335 -0.958745 7.574265 0.230600 0.060232 21.271057 -5.427889 -0.378561 11.302846 4.772592 0.952062 14.424459 0.493191 0.098941 
0.000000 49.215324 -15.526817 -65.751953 0.000000 0.000000 8.606224 5.095821 3.873379 8.076172 0.000000 0.000000 -21.615482 -2.040968 0.390725 5.588009 2.050767 -0.214706 0.000000 0.000000 0.000000 -96.421982 -173.117813 1.990485 -13.036882 -5.867021 5.469522 2.336421 -9.090858 -5.877996 0.000000 0.000000 0.000000 96.889374 170.595108 0.394342 16.324451 2.986572 4.734000 11.024349 -6.808070 24.322506 27.267481 3.817735 -0.367281 24.823975 -3.782852 -1.705988 14.968436 0.260555 0.021730 26.517614 -5.428799 -0.603011 20.614731 4.432974 2.008801 23.374872 0.425072 0.048571 
0.000000 49.122330 -17.810434 -82.978516 0.000000 0.000000 8.606224 5.095821 3.873379 12.119141 0.000000 0.000000 -29.525640 -2.040968 0.390725 5.588009 2.050767 -0.214706 0.000000 0.000000 0.000000 -104.134140 178.971222 1.805467 -19.208136 -5.772118 5.195127 16.253942 -16.250576 -1.400808 0.000000 0.000000 0.000000 105.100655 178.302216 -0.856660 24.404499 2.870243 4.587764 15.781514 -13.282410 38.855537 33.461201 4.003951 -0.360970 33.164478 -3.803340 -2.357981 22.313431 0.225863 -0.020043 31.684978 -5.458695 -0.297255 30.108393 4.148735 2.356992 32.515865 0.559786 -0.153329 
